<svg xmlns="http://www.w3.org/2000/svg" xmlns:xlink="http://www.w3.org/1999/xlink" width="278.027" height="129.56" viewBox="0 0 208.52 97.17"><path stroke-width=".399" stroke-miterlimit="10" fill="none" stroke="#fff" d="M142.912 22.809a8.753 8.753 0 1 0-17.506 0 8.753 8.753 0 0 0 17.506 0zm-8.753 0"/><symbol id="a"><path d="M.248.374c.082.027.14.097.14.176C.388.632.3.688.204.688.103.688.027.628.027.552.027.519.049.5.078.5.109.5.129.522.129.551c0 .05-.047.05-.062.05C.098.65.164.663.2.663.241.663.296.641.296.551A.25.25 0 0 0 .268.437C.238.389.204.386.179.385A.554.554 0 0 0 .14.382C.132.381.125.38.125.37c0-.011.007-.011.024-.011h.044C.275.359.312.291.312.193.312.057.243.028.199.028.156.028.081.045.046.104.081.099.112.121.112.159a.054.054 0 0 1-.056.056C.032.215 0 .201 0 .157 0 .066.093 0 .202 0c.122 0 .213.091.213.193 0 .082-.063.16-.167.181z"/></symbol><use xlink:href="#a" transform="matrix(9.9626 0 0 -9.9626 132.086 26.238)" fill="#fff"/><path stroke-width=".399" stroke-miterlimit="10" fill="none" stroke="#fff" d="M189.164 22.809a8.753 8.753 0 1 0-17.506 0 8.753 8.753 0 0 0 17.506 0zm-8.753 0"/><symbol id="b"><path d="M.121.479C.075.509.071.543.071.56c0 .061.065.103.136.103C.28.663.344.611.344.539.344.482.305.434.245.399l-.124.08M.267.384c.072.037.121.089.121.155 0 .092-.089.149-.18.149-.1 0-.181-.074-.181-.167a.16.16 0 0 1 .044-.11C.082.399.119.374.144.357.086.328 0 .272 0 .173 0 .067.102 0 .207 0 .32 0 .415.083.415.19a.18.18 0 0 1-.049.123.422.422 0 0 1-.099.071m-.1-.042L.29.264C.318.245.365.215.365.154.365.08.29.028.208.028.122.028.05.09.05.173c0 .058.032.122.117.169z"/></symbol><use xlink:href="#b" transform="matrix(9.9626 0 0 -9.9626 178.337 26.238)" fill="#fff"/><path stroke-width=".399" stroke-miterlimit="10" fill="none" stroke="#fff" d="M110.207 55.514a8.753 8.753 0 1 0-17.506 0 8.753 8.753 0 0 0 17.506 0zm-8.753 0"/><symbol id="c"><path d="M.266.165V.078C.266.042.264.031.19.031H.169V0C.21.003.262.003.304.003.346.003.399.003.44 0v.031H.419C.345.031.343.042.343.078v.087h.1v.031h-.1v.455c0 .02 0 .026-.016.026-.009 0-.012 0-.02-.012L0 .196V.165h.266m.006.031H.028l.244.373V.196z"/></symbol><use xlink:href="#c" transform="matrix(9.9626 0 0 -9.9626 99.243 58.723)" fill="#fff"/><path stroke-width=".399" stroke-miterlimit="10" fill="none" stroke="#fff" d="M175.617 55.514a8.753 8.753 0 1 0-17.506 0 8.753 8.753 0 0 0 17.506 0zm-8.753 0"/><symbol id="d"><path d="M.399.223c0 .119-.082.219-.19.219A.176.176 0 0 1 .082.391v.195A.317.317 0 0 1 .167.573C.29.573.36.664.36.677.36.683.357.688.35.688c-.001 0-.003 0-.008-.003A.33.33 0 0 0 .073.684L.061.687c-.01 0-.01-.008-.01-.024V.367c0-.018 0-.026.014-.026.007 0 .009.003.013.009.011.016.048.07.129.07C.259.42.284.374.292.356A.308.308 0 0 0 .31.23C.31.195.31.135.286.093A.125.125 0 0 0 .179.028.156.156 0 0 0 .032.14C.035.139.038.138.049.138c.033 0 .05.025.05.049a.048.048 0 0 1-.05.049C.035.236 0 .229 0 .183 0 .097.069 0 .181 0a.22.22 0 0 1 .218.223z"/></symbol><use xlink:href="#d" transform="matrix(9.9626 0 0 -9.9626 164.871 58.942)" fill="#fff"/><path stroke-width=".399" stroke-miterlimit="10" fill="none" stroke="#fff" d="M208.322 88.219a8.753 8.753 0 1 0-17.506 0 8.753 8.753 0 0 0 17.506 0zm-8.753 0"/><symbol id="e"><path d="M.09.35v.024c0 .253.124.289.175.289.024 0 .066-.006.088-.04-.015 0-.055 0-.055-.045 0-.031.024-.046.046-.046C.36.532.39.541.39.58.39.64.346.688.263.688.135.688 0 .559 0 .338 0 .071.116 0 .209 0 .32 0 .415.094.415.226c0 .127-.089.223-.2.223C.147.449.11.398.09.35M.209.028C.146.028.116.088.11.103.092.15.092.23.092.248c0 .078.032.178.122.178.016 0 .062 0 .093-.062C.325.327.325.276.325.227c0-.048 0-.098-.017-.134C.278.033.232.028.209.028z"/></symbol><use xlink:href="#e" transform="matrix(9.9626 0 0 -9.9626 197.495 91.647)" fill="#fff"/><path stroke-width=".399" stroke-miterlimit="10" fill="none" stroke="#fff" d="M63.956 55.514a8.753 8.753 0 1 0-17.507 0 8.753 8.753 0 0 0 17.507 0zm-8.754 0"/><symbol id="f"><path d="M.42.631c.009.012.009.014.009.035H.186C.064.666.062.679.058.698H.033L0 .492h.025C.028.508.037.571.05.583c.007.006.085.006.098.006h.207C.344.573.265.464.243.431A.699.699 0 0 1 .12.055C.12.045.12 0 .166 0s.046.045.046.055v.051c0 .055.003.11.011.164.004.023.018.109.062.171l.135.19z"/></symbol><use xlink:href="#f" transform="matrix(9.9626 0 0 -9.9626 53.27 58.942)" fill="#fff"/><path stroke-width=".399" stroke-miterlimit="10" fill="none" stroke="#fff" d="M17.704 55.514a8.753 8.753 0 1 0-17.506 0 8.753 8.753 0 0 0 17.506 0zm-8.753 0"/><symbol id="g"><path d="M.077.077.183.18c.156.138.216.192.216.292 0 .114-.09.194-.212.194A.185.185 0 0 1 0 .485C0 .429.05.429.053.429c.017 0 .052.012.052.053a.05.05 0 0 1-.053.052L.039.533a.144.144 0 0 0 .135.102C.265.635.308.554.308.472c0-.08-.05-.159-.105-.221L.011.037C0 .026 0 .024 0 0h.371l.028.174H.374C.369.144.362.1.352.085.345.077.279.077.257.077h-.18z"/></symbol><use xlink:href="#g" transform="matrix(9.9626 0 0 -9.9626 6.96 58.723)" fill="#fff"/><path stroke-width=".399" stroke-miterlimit="10" fill="none" stroke="#fff" d="M31.25 88.219a8.753 8.753 0 1 0-17.505 0 8.753 8.753 0 0 0 17.506 0zm-8.752 0"/><symbol id="h"><path d="M.205.64c0 .024 0 .026-.023.026C.12.602.032.602 0 .602V.571a.3.3 0 0 1 .131.026V.079C.131.043.128.031.038.031H.006V0c.035.003.122.003.162.003.04 0 .127 0 .162-.003v.031H.298c-.09 0-.093.011-.093.048V.64z"/></symbol><use xlink:href="#h" transform="matrix(9.9626 0 0 -9.9626 20.895 91.428)" fill="#fff"/><path stroke-width=".399" stroke-miterlimit="10" fill="none" stroke="#fff" d="M131.842 14.162c-3.741-13.963 8.375-13.963 5.01-1.405"/><path stroke-width=".319" stroke-linecap="round" stroke-linejoin="round" fill="none" stroke="#fff" d="M138.701 12.015c-.603-.059-1.753.768-1.926 1.03-.019-.314-.602-1.605-1.153-1.856"/><path stroke-width=".399" stroke-miterlimit="10" fill="none" stroke="#fff" d="M178.094 14.162c-3.741-13.963 8.375-13.963 5.01-1.405"/><path stroke-width=".319" stroke-linecap="round" stroke-linejoin="round" fill="none" stroke="#fff" d="M184.953 12.015c-.603-.059-1.753.768-1.926 1.03-.02-.314-.602-1.605-1.153-1.856"/><path stroke-width=".399" stroke-miterlimit="10" fill="none" stroke="#fff" d="M6.634 46.867c-3.741-13.963 8.375-13.963 5.01-1.405"/><path stroke-width=".319" stroke-linecap="round" stroke-linejoin="round" fill="none" stroke="#fff" d="M13.493 44.72c-.603-.06-1.753.767-1.926 1.03-.02-.314-.602-1.605-1.153-1.856"/><path stroke-width=".399" stroke-miterlimit="10" fill="none" stroke="#fff" d="M52.886 46.867c-3.742-13.963 8.374-13.963 5.01-1.405"/><path stroke-width=".319" stroke-linecap="round" stroke-linejoin="round" fill="none" stroke="#fff" d="M59.745 44.72c-.603-.06-1.753.767-1.927 1.03-.019-.314-.601-1.605-1.153-1.856"/><path stroke-width=".399" stroke-miterlimit="10" fill="none" stroke="#fff" d="m193.238 81.888-19.72-19.72"/><path stroke-width=".31899681" stroke-linecap="round" stroke-linejoin="round" fill="none" stroke="#fff" d="M173.236 64.14c.353-.492.212-1.901.07-2.183.283.14 1.692.282 2.185-.07"/><path stroke-width=".399" stroke-miterlimit="10" fill="none" stroke="#fff" d="m160.534 49.184-19.72-19.72"/><path stroke-width=".31899681" stroke-linecap="round" stroke-linejoin="round" fill="none" stroke="#fff" d="M140.532 31.436c.352-.493.21-1.902.07-2.184.282.14 1.69.282 2.184-.07"/><path stroke-width=".399" stroke-miterlimit="10" fill="none" stroke="#fff" d="m107.784 49.184 19.72-19.72"/><path stroke-width=".31899681" stroke-linecap="round" stroke-linejoin="round" fill="none" stroke="#fff" d="M125.532 29.182c.493.352 1.902.21 2.184.07-.14.282-.282 1.69.07 2.184"/><path stroke-width=".399" stroke-miterlimit="10" fill="none" stroke="#fff" d="m28.828 81.888 19.72-19.72"/><path stroke-width=".31899681" stroke-linecap="round" stroke-linejoin="round" fill="none" stroke="#fff" d="M46.576 61.886c.493.353 1.902.212 2.183.07-.14.283-.281 1.692.07 2.185"/></svg>