<svg xmlns="http://www.w3.org/2000/svg" xmlns:xlink="http://www.w3.org/1999/xlink" width="659.171" height="158.284" viewBox="0 0 494.378 118.713"><path stroke-width=".399" stroke-miterlimit="10" fill="none" stroke="#fff" d="M50.272 42.193h-34.55a3.985 3.985 0 0 0-3.985 3.985v14.708c0 2.2 1.784 3.985 3.985 3.985h34.55c2.2 0 3.985-1.784 3.985-3.985V46.178c0-2.2-1.784-3.985-3.985-3.985zM11.737 64.871"/><symbol id="a"><path d="M.144.57v.066L0 .625V.594c.071 0 .078-.006.078-.05V.076C.078.031.067.031 0 .031V0l.112.003L.225 0v.031c-.067 0-.078 0-.078.045V.253C.152.237.194.183.27.183c.119 0 .223.098.223.227 0 .127-.097.226-.209.226A.18.18 0 0 1 .144.57M.147.308v.223a.15.15 0 0 0 .129.08C.349.611.41.523.41.41.41.289.34.205.266.205c-.04 0-.078.02-.105.061C.147.287.147.288.147.308z"/></symbol><symbol id="b"><path d="M.139.332v.11L0 .431V.4C.07.4.078.393.078.344V.076C.078.031.067.031 0 .031V0l.114.003c.04 0 .087 0 .127-.003v.031H.22C.146.031.144.042.144.078v.154c0 .099.042.188.118.188L.273.419A.043.043 0 0 1 .25.38C.25.352.271.337.293.337c.018 0 .043.012.043.044S.305.442.262.442C.189.442.153.375.139.332z"/></symbol><symbol id="c"><path d="M.084.263c.006.149.09.174.124.174.103 0 .113-.135.113-.174H.084M.083.242h.279c.022 0 .025 0 .025.021 0 .099-.054.196-.179.196C.092.459 0 .356 0 .231 0 .097.105 0 .22 0a.17.17 0 0 1 .167.13c0 .01-.008.012-.013.012C.365.142.363.136.361.128.326.025.236.025.226.025c-.05 0-.09.03-.113.067-.03.048-.03.114-.03.15z"/></symbol><symbol id="d"><path d="M.397.344C.406.367.423.41.489.411v.031a.94.94 0 0 0-.162 0V.411C.364.41.375.387.375.368.375.359.373.355.369.344L.267.089.155.368C.149.381.149.383.149.385c0 .026.039.026.057.026v.031L.097.439C.07.439.03.44 0 .442V.411C.063.411.067.405.08.374L.224.019C.23.005.232 0 .245 0c.013 0 .017.009.021.019l.131.325z"/></symbol><use xlink:href="#a" transform="matrix(9.9626 0 0 -9.9626 23.714 56.64)" fill="#fff"/><use xlink:href="#b" transform="matrix(9.9626 0 0 -9.9626 29.253 54.708)" fill="#fff"/><use xlink:href="#c" transform="matrix(9.9626 0 0 -9.9626 33.158 54.818)" fill="#fff"/><use xlink:href="#d" transform="matrix(9.9626 0 0 -9.9626 37.492 54.818)" fill="#fff"/><path stroke-width=".399" stroke-miterlimit="10" fill="none" stroke="#fff" d="M93.19 42.193H58.64a3.985 3.985 0 0 0-3.984 3.985v14.708c0 2.2 1.784 3.985 3.985 3.985h34.55c2.2 0 3.985-1.784 3.985-3.985V46.178c0-2.2-1.784-3.985-3.985-3.985zM54.657 64.871"/><symbol id="e"><path d="M.346.066V0l.147.011v.031c-.07 0-.078.007-.078.056v.607L.271.694V.663c.07 0 .078-.007.078-.056V.391a.16.16 0 0 1-.126.062A.226.226 0 0 1 0 .226C0 .099.098 0 .212 0c.064 0 .109.034.134.066m0 .268V.129c0-.018 0-.02-.011-.037a.14.14 0 0 0-.118-.07C.172.022.136.048.112.086a.269.269 0 0 0-.029.139c0 .037.002.097.031.142a.137.137 0 0 0 .113.064.13.13 0 0 0 .108-.06C.346.354.346.352.346.334z"/></symbol><symbol id="f"><path d="M.291.087C.295.047.322.005.369.005.39.005.451.019.451.1v.056H.426V.1C.426.042.401.036.39.036c-.033 0-.037.045-.037.05v.2c0 .042 0 .081-.036.118A.191.191 0 0 1 .18.459C.098.459.029.412.029.346c0-.03.02-.047.046-.047.028 0 .046.02.046.046C.121.357.116.39.07.391c.027.035.076.046.108.046.049 0 .106-.039.106-.128V.272C.233.269.163.266.1.236.025.202 0 .15 0 .106 0 .025.097 0 .16 0c.066 0 .112.04.131.087M.284.251v-.1C.284.056.212.022.167.022c-.049 0-.09.035-.09.085 0 .055.042.138.207.144z"/></symbol><symbol id="g"><path d="M.154.411h.143v.031H.154v.184H.129C.128.544.098.437 0 .433V.411h.085V.135C.085.012.178 0 .214 0c.071 0 .099.071.099.135v.057H.288V.137C.288.063.258.025.221.025.154.025.154.116.154.133v.278z"/></symbol><use xlink:href="#e" transform="matrix(9.9626 0 0 -9.9626 66.568 57.1)" fill="#fff"/><use xlink:href="#f" transform="matrix(9.9626 0 0 -9.9626 72.187 57.1)" fill="#fff"/><use xlink:href="#g" transform="matrix(9.9626 0 0 -9.9626 76.939 57.1)" fill="#fff"/><use xlink:href="#f" transform="matrix(9.9626 0 0 -9.9626 81.043 57.1)" fill="#fff"/><path stroke-width=".399" stroke-miterlimit="10" fill="none" stroke="#fff" d="M136.11 42.193h-34.55a3.985 3.985 0 0 0-3.986 3.985v14.708c0 2.2 1.784 3.985 3.985 3.985h34.55c2.201 0 3.986-1.784 3.986-3.985V46.178c0-2.2-1.785-3.985-3.986-3.985zM97.573 64.871"/><symbol id="h"><path d="M.078.344V.076C.078.031.067.031 0 .031V0l.113.003L.225 0v.031c-.067 0-.078 0-.078.045V.26c0 .104.071.16.135.16C.345.42.356.366.356.309V.076C.356.031.345.031.278.031V0l.113.003L.503 0v.031c-.052 0-.077 0-.078.03v.191c0 .086 0 .117-.031.153C.38.422.347.442.289.442.216.442.169.399.141.337v.105L0 .431V.4C.07.4.078.393.078.344z"/></symbol><symbol id="i"><path d="M.275.235c.03.038.068.087.092.113A.153.153 0 0 0 .486.4v.031a1.123 1.123 0 0 0-.178 0V.4C.329.398.337.385.337.369A.057.057 0 0 0 .322.334L.26.256.182.357C.173.367.173.369.173.375.173.39.188.399.208.4v.031a1.66 1.66 0 0 0-.203 0V.4C.075.4.076.399.123.339L.222.21.128.091A.16.16 0 0 0 0 .031V0c.026.002.057.003.083.003L.178 0v.031C.156.034.149.047.149.062c0 .022.029.055.09.127l.076-.1C.323.078.336.062.336.056.336.047.327.032.3.031V0l.108.003C.435.003.474.002.504 0v.031C.45.031.432.033.409.062L.275.235z"/></symbol><use xlink:href="#h" transform="matrix(9.9626 0 0 -9.9626 109.604 56.596)" fill="#fff"/><use xlink:href="#c" transform="matrix(9.9626 0 0 -9.9626 115.103 56.706)" fill="#fff"/><use xlink:href="#i" transform="matrix(9.9626 0 0 -9.9626 119.367 56.596)" fill="#fff"/><use xlink:href="#g" transform="matrix(9.9626 0 0 -9.9626 124.697 56.706)" fill="#fff"/><path stroke-width=".399" stroke-miterlimit="10" fill="none" stroke="#fff" d="M221.548 42.193h-34.55a3.985 3.985 0 0 0-3.985 3.985v14.708c0 2.2 1.784 3.985 3.985 3.985h34.55c2.201 0 3.985-1.784 3.985-3.985V46.178c0-2.2-1.784-3.985-3.985-3.985zm-38.535 22.678"/><use xlink:href="#a" transform="matrix(9.9626 0 0 -9.9626 194.988 56.64)" fill="#fff"/><use xlink:href="#b" transform="matrix(9.9626 0 0 -9.9626 200.527 54.708)" fill="#fff"/><use xlink:href="#c" transform="matrix(9.9626 0 0 -9.9626 204.433 54.818)" fill="#fff"/><use xlink:href="#d" transform="matrix(9.9626 0 0 -9.9626 208.766 54.818)" fill="#fff"/><path stroke-width=".399" stroke-miterlimit="10" fill="none" stroke="#fff" d="M264.467 42.193h-34.55a3.985 3.985 0 0 0-3.985 3.985v14.708c0 2.2 1.784 3.985 3.985 3.985h34.55c2.201 0 3.985-1.784 3.985-3.985V46.178c0-2.2-1.784-3.985-3.985-3.985zm-38.535 22.678"/><use xlink:href="#e" transform="matrix(9.9626 0 0 -9.9626 237.842 57.1)" fill="#fff"/><use xlink:href="#f" transform="matrix(9.9626 0 0 -9.9626 243.46 57.1)" fill="#fff"/><use xlink:href="#g" transform="matrix(9.9626 0 0 -9.9626 248.213 57.1)" fill="#fff"/><use xlink:href="#f" transform="matrix(9.9626 0 0 -9.9626 252.317 57.1)" fill="#fff"/><path stroke-width=".399" stroke-miterlimit="10" fill="none" stroke="#fff" d="M307.386 42.193h-34.55a3.985 3.985 0 0 0-3.985 3.985v14.708c0 2.2 1.784 3.985 3.985 3.985h34.55c2.2 0 3.985-1.784 3.985-3.985V46.178c0-2.2-1.784-3.985-3.985-3.985zM268.85 64.871"/><use xlink:href="#h" transform="matrix(9.9626 0 0 -9.9626 280.879 56.596)" fill="#fff"/><use xlink:href="#c" transform="matrix(9.9626 0 0 -9.9626 286.378 56.706)" fill="#fff"/><use xlink:href="#i" transform="matrix(9.9626 0 0 -9.9626 290.642 56.596)" fill="#fff"/><use xlink:href="#g" transform="matrix(9.9626 0 0 -9.9626 295.972 56.706)" fill="#fff"/><path stroke-width=".399" stroke-miterlimit="10" fill="none" stroke="#fff" d="M392.825 42.193h-34.55a3.985 3.985 0 0 0-3.985 3.985v14.708c0 2.2 1.784 3.985 3.985 3.985h34.55c2.2 0 3.985-1.784 3.985-3.985V46.178c0-2.2-1.784-3.985-3.985-3.985zM354.29 64.871"/><use xlink:href="#a" transform="matrix(9.9626 0 0 -9.9626 366.263 56.64)" fill="#fff"/><use xlink:href="#b" transform="matrix(9.9626 0 0 -9.9626 371.802 54.708)" fill="#fff"/><use xlink:href="#c" transform="matrix(9.9626 0 0 -9.9626 375.708 54.818)" fill="#fff"/><use xlink:href="#d" transform="matrix(9.9626 0 0 -9.9626 380.041 54.818)" fill="#fff"/><path stroke-width=".399" stroke-miterlimit="10" fill="none" stroke="#fff" d="M435.743 42.193h-34.55a3.985 3.985 0 0 0-3.985 3.985v14.708c0 2.2 1.784 3.985 3.985 3.985h34.55a3.985 3.985 0 0 0 3.986-3.985V46.178c0-2.2-1.785-3.985-3.986-3.985zm-38.535 22.678"/><use xlink:href="#e" transform="matrix(9.9626 0 0 -9.9626 409.116 57.1)" fill="#fff"/><use xlink:href="#f" transform="matrix(9.9626 0 0 -9.9626 414.735 57.1)" fill="#fff"/><use xlink:href="#g" transform="matrix(9.9626 0 0 -9.9626 419.487 57.1)" fill="#fff"/><use xlink:href="#f" transform="matrix(9.9626 0 0 -9.9626 423.591 57.1)" fill="#fff"/><path stroke-width=".399" stroke-miterlimit="10" fill="none" stroke="#fff" d="M478.662 42.193h-34.55a3.985 3.985 0 0 0-3.985 3.985v14.708c0 2.2 1.784 3.985 3.985 3.985h34.55c2.201 0 3.985-1.784 3.985-3.985V46.178c0-2.2-1.784-3.985-3.985-3.985zm-38.535 22.678"/><use xlink:href="#h" transform="matrix(9.9626 0 0 -9.9626 452.153 56.596)" fill="#fff"/><use xlink:href="#c" transform="matrix(9.9626 0 0 -9.9626 457.652 56.706)" fill="#fff"/><use xlink:href="#i" transform="matrix(9.9626 0 0 -9.9626 461.916 56.596)" fill="#fff"/><use xlink:href="#g" transform="matrix(9.9626 0 0 -9.9626 467.246 56.706)" fill="#fff"/><symbol id="j"><path d="M.199.67C.19.682.189.683.17.683H0V.652h.029A.836.836 0 0 0 .079.65C.102.647.103.646.103.627V.105c0-.027 0-.074-.103-.074V0l.117.003L.234 0v.031C.131.031.131.078.131.105v.52l.01-.012.408-.6C.558.001.559 0 .566 0 .58 0 .58.007.58.026v.552c0 .027 0 .074.103.074v.031L.566.68.449.683V.652C.552.652.552.605.552.578V.151L.199.67z"/></symbol><symbol id="k"><path d="M.549.253C.549.111.452.031.357.031.31.031.192.056.192.246v.381c0 .036.002.047.079.047h.024v.031C.26.702.186.702.148.702.11.702.035.702 0 .705V.674h.024C.101.674.103.663.103.627V.25C.103.109.219 0 .355 0 .47 0 .56.093.577.207.58.227.58.236.58.276v.32c0 .033 0 .078.103.078v.031L.565.702.446.705V.674C.549.674.549.627.549.6V.253z"/></symbol><symbol id="l"><path d="M.549.258H.524C.513.156.499.031.323.031H.241c-.047 0-.049.007-.049.04v.533c0 .034 0 .048.095.048H.32v.031C.284.68.193.68.152.68.113.68.035.68 0 .683V.652h.024C.101.652.103.641.103.605V.078C.103.042.101.031.024.031H0V0h.521l.028.258z"/></symbol><use xlink:href="#j" transform="matrix(9.9626 0 0 -9.9626 19.627 103.744)" fill="#fff"/><use xlink:href="#k" transform="matrix(9.9626 0 0 -9.9626 27.099 103.963)" fill="#fff"/><use xlink:href="#l" transform="matrix(9.9626 0 0 -9.9626 34.57 103.744)" fill="#fff"/><use xlink:href="#l" transform="matrix(9.9626 0 0 -9.9626 40.797 103.744)" fill="#fff"/><use xlink:href="#j" transform="matrix(9.9626 0 0 -9.9626 448.012 10.128)" fill="#fff"/><use xlink:href="#k" transform="matrix(9.9626 0 0 -9.9626 455.484 10.347)" fill="#fff"/><use xlink:href="#l" transform="matrix(9.9626 0 0 -9.9626 462.956 10.128)" fill="#fff"/><use xlink:href="#l" transform="matrix(9.9626 0 0 -9.9626 469.182 10.128)" fill="#fff"/><path stroke-width=".996" stroke-miterlimit="10" fill="none" stroke="#fff" d="M32.997 65.07v25.458"/><path d="m32.997 93.417 2.311-4.623-2.311 1.734-2.311-1.734" fill="#fff"/><path stroke-width=".996" stroke-miterlimit="10" fill="none" stroke="#fff" d="M118.834 41.994c0-25.028 128.358-25.028 128.358-2.89"/><path d="m247.192 41.994 2.311-4.623-2.31 1.734-2.312-1.734" fill="#fff"/><path stroke-width=".996" stroke-miterlimit="10" fill="none" stroke="#fff" d="M204.273 65.07c0 25.028-128.357 25.028-128.357 2.89"/><path d="m75.916 65.07-2.312 4.623 2.312-1.734 2.311 1.734" fill="#fff"/><path stroke-width=".996" stroke-miterlimit="10" fill="none" stroke="#fff" d="M290.11 41.994c0-25.028 128.358-25.028 128.358-2.89"/><path d="m418.468 41.994 2.312-4.623-2.312 1.734-2.311-1.734" fill="#fff"/><path stroke-width=".996" stroke-miterlimit="10" fill="none" stroke="#fff" d="M375.55 65.07c0 25.028-128.358 25.028-128.358 2.89"/><path d="m247.192 65.07-2.311 4.623 2.311-1.734 2.311 1.734" fill="#fff"/><path stroke-width=".996" stroke-miterlimit="10" fill="none" stroke="#fff" d="M461.387 41.994V16.536"/><path d="m461.387 13.647-2.311 4.623 2.311-1.734 2.312 1.734" fill="#fff"/><path stroke-width=".399" stroke-dasharray="2.98883,2.98883" stroke-miterlimit="10" fill="none" stroke="#fff" d="M.2 76.409h151.432V30.655H.2zM171.475 76.409H322.91V30.655H171.475zM342.752 76.409h151.433V30.655H342.752z"/><symbol id="m"><path d="M.443.225c0 .128-.1.234-.221.234C.097.459 0 .35 0 .225 0 .096.104 0 .221 0c.121 0 .222.098.222.225m-.221-.2a.13.13 0 0 0-.114.067C.083.136.083.197.083.233c0 .039 0 .093.024.137a.134.134 0 0 0 .114.067.131.131 0 0 0 .113-.065C.36.329.36.271.36.233c0-.036 0-.09-.022-.134A.129.129 0 0 0 .222.025z"/></symbol><use xlink:href="#j" transform="matrix(9.9626 0 0 -9.9626 64.898 115.392)" fill="#fff"/><use xlink:href="#m" transform="matrix(9.9626 0 0 -9.9626 72.32 115.502)" fill="#fff"/><use xlink:href="#e" transform="matrix(9.9626 0 0 -9.9626 77.64 115.502)" fill="#fff"/><use xlink:href="#c" transform="matrix(9.9626 0 0 -9.9626 83.12 115.502)" fill="#fff"/><use xlink:href="#j" transform="matrix(9.9626 0 0 -9.9626 236.172 115.392)" fill="#fff"/><use xlink:href="#m" transform="matrix(9.9626 0 0 -9.9626 243.594 115.502)" fill="#fff"/><use xlink:href="#e" transform="matrix(9.9626 0 0 -9.9626 248.914 115.502)" fill="#fff"/><use xlink:href="#c" transform="matrix(9.9626 0 0 -9.9626 254.393 115.502)" fill="#fff"/><use xlink:href="#j" transform="matrix(9.9626 0 0 -9.9626 407.446 115.392)" fill="#fff"/><use xlink:href="#m" transform="matrix(9.9626 0 0 -9.9626 414.868 115.502)" fill="#fff"/><use xlink:href="#e" transform="matrix(9.9626 0 0 -9.9626 420.188 115.502)" fill="#fff"/><use xlink:href="#c" transform="matrix(9.9626 0 0 -9.9626 425.667 115.502)" fill="#fff"/><path stroke-width=".996" stroke-miterlimit="10" fill="none" stroke="#fff" d="M75.916 104.955V79.497"/><path d="m75.916 76.608-2.312 4.623 2.312-1.734 2.311 1.734" fill="#fff"/><path stroke-width=".996" stroke-miterlimit="10" fill="none" stroke="#fff" d="M247.192 104.955V79.497"/><path d="m247.192 76.608-2.311 4.623 2.311-1.734 2.311 1.734" fill="#fff"/><path stroke-width=".996" stroke-miterlimit="10" fill="none" stroke="#fff" d="M418.468 104.955V79.497"/><path d="m418.468 76.608-2.311 4.623 2.311-1.734 2.312 1.734" fill="#fff"/></svg>