<svg xmlns="http://www.w3.org/2000/svg" xmlns:xlink="http://www.w3.org/1999/xlink" width="654.776" height="121.564" viewBox="0 0 491.082 91.173"><symbol id="a"><path d="M.58.605c0 .036.002.047.079.047h.024v.031C.648.68.574.68.536.68.498.68.423.68.388.683V.652h.024C.489.652.491.641.491.605V.371H.192v.234c0 .036.002.047.079.047h.024v.031C.26.68.186.68.148.68.11.68.035.68 0 .683V.652h.024C.101.652.103.641.103.605V.078C.103.042.101.031.024.031H0V0c.035.003.109.003.147.003C.185.003.26.003.295 0v.031H.271C.194.031.192.042.192.078V.34h.299V.078C.491.042.489.031.412.031H.388V0c.035.003.109.003.147.003.038 0 .113 0 .148-.003v.031H.659C.582.031.58.042.58.078v.527z"/></symbol><symbol id="b"><path d="M.084.263c.006.149.09.174.124.174.103 0 .113-.135.113-.174H.084M.083.242h.279c.022 0 .025 0 .025.021 0 .099-.054.196-.179.196C.092.459 0 .356 0 .231 0 .097.105 0 .22 0a.17.17 0 0 1 .167.13c0 .01-.008.012-.013.012C.365.142.363.136.361.128.326.025.236.025.226.025c-.05 0-.09.03-.113.067-.03.048-.03.114-.03.15z"/></symbol><symbol id="c"><path d="M.291.087C.295.047.322.005.369.005.39.005.451.019.451.1v.056H.426V.1C.426.042.401.036.39.036c-.033 0-.037.045-.037.05v.2c0 .042 0 .081-.036.118A.191.191 0 0 1 .18.459C.098.459.029.412.029.346c0-.03.02-.047.046-.047.028 0 .046.02.046.046C.121.357.116.39.07.391c.027.035.076.046.108.046.049 0 .106-.039.106-.128V.272C.233.269.163.266.1.236.025.202 0 .15 0 .106 0 .025.097 0 .16 0c.066 0 .112.04.131.087M.284.251v-.1C.284.056.212.022.167.022c-.049 0-.09.035-.09.085 0 .055.042.138.207.144z"/></symbol><symbol id="d"><path d="M.346.066V0l.147.011v.031c-.07 0-.078.007-.078.056v.607L.271.694V.663c.07 0 .078-.007.078-.056V.391a.16.16 0 0 1-.126.062A.226.226 0 0 1 0 .226C0 .099.098 0 .212 0c.064 0 .109.034.134.066m0 .268V.129c0-.018 0-.02-.011-.037a.14.14 0 0 0-.118-.07C.172.022.136.048.112.086a.269.269 0 0 0-.029.139c0 .037.002.097.031.142a.137.137 0 0 0 .113.064.13.13 0 0 0 .108-.06C.346.354.346.352.346.334z"/></symbol><use xlink:href="#a" transform="matrix(9.9626 0 0 -9.9626 3.65 27.993)" fill="#fff"/><use xlink:href="#b" transform="matrix(9.9626 0 0 -9.9626 11.072 28.103)" fill="#fff"/><use xlink:href="#c" transform="matrix(9.9626 0 0 -9.9626 15.635 28.103)" fill="#fff"/><use xlink:href="#d" transform="matrix(9.9626 0 0 -9.9626 20.536 28.103)" fill="#fff"/><path stroke-width=".399" stroke-miterlimit="10" fill="none" stroke="#fff" d="M96.337 10.36h-34.55a3.985 3.985 0 0 0-3.985 3.986v20.376c0 2.201 1.784 3.985 3.985 3.985h34.55c2.201 0 3.985-1.784 3.985-3.985V14.346c0-2.201-1.784-3.985-3.985-3.985zM57.802 38.708"/><symbol id="e"><path d="M.154.411h.143v.031H.154v.184H.129C.128.544.098.437 0 .433V.411h.085V.135C.085.012.178 0 .214 0c.071 0 .099.071.099.135v.057H.288V.137C.288.063.258.025.221.025.154.025.154.116.154.133v.278z"/></symbol><use xlink:href="#d" transform="matrix(9.9626 0 0 -9.9626 69.715 28.103)" fill="#fff"/><use xlink:href="#c" transform="matrix(9.9626 0 0 -9.9626 75.334 28.103)" fill="#fff"/><use xlink:href="#e" transform="matrix(9.9626 0 0 -9.9626 80.086 28.103)" fill="#fff"/><use xlink:href="#c" transform="matrix(9.9626 0 0 -9.9626 84.19 28.103)" fill="#fff"/><path stroke-width=".399" stroke-miterlimit="10" fill="none" stroke="#fff" d="M139.256 10.36h-34.55a3.985 3.985 0 0 0-3.985 3.986v20.376c0 2.201 1.784 3.985 3.985 3.985h34.55a3.985 3.985 0 0 0 3.985-3.985V14.346c0-2.201-1.784-3.985-3.985-3.985zM100.72 38.708"/><symbol id="f"><path d="M.078.344V.076C.078.031.067.031 0 .031V0l.113.003L.225 0v.031c-.067 0-.078 0-.078.045V.26c0 .104.071.16.135.16C.345.42.356.366.356.309V.076C.356.031.345.031.278.031V0l.113.003L.503 0v.031c-.052 0-.077 0-.078.03v.191c0 .086 0 .117-.031.153C.38.422.347.442.289.442.216.442.169.399.141.337v.105L0 .431V.4C.07.4.078.393.078.344z"/></symbol><symbol id="g"><path d="M.275.235c.03.038.068.087.092.113A.153.153 0 0 0 .486.4v.031a1.123 1.123 0 0 0-.178 0V.4C.329.398.337.385.337.369A.057.057 0 0 0 .322.334L.26.256.182.357C.173.367.173.369.173.375.173.39.188.399.208.4v.031a1.66 1.66 0 0 0-.203 0V.4C.075.4.076.399.123.339L.222.21.128.091A.16.16 0 0 0 0 .031V0c.026.002.057.003.083.003L.178 0v.031C.156.034.149.047.149.062c0 .022.029.055.09.127l.076-.1C.323.078.336.062.336.056.336.047.327.032.3.031V0l.108.003C.435.003.474.002.504 0v.031C.45.031.432.033.409.062L.275.235z"/></symbol><use xlink:href="#f" transform="matrix(9.9626 0 0 -9.9626 112.75 27.598)" fill="#fff"/><use xlink:href="#b" transform="matrix(9.9626 0 0 -9.9626 118.25 27.708)" fill="#fff"/><use xlink:href="#g" transform="matrix(9.9626 0 0 -9.9626 122.513 27.598)" fill="#fff"/><use xlink:href="#e" transform="matrix(9.9626 0 0 -9.9626 127.843 27.708)" fill="#fff"/><path stroke-width=".399" stroke-miterlimit="10" fill="none" stroke="#fff" d="M238.868 10.36h-34.55a3.985 3.985 0 0 0-3.985 3.986v20.376c0 2.201 1.784 3.985 3.985 3.985h34.55c2.201 0 3.985-1.784 3.985-3.985V14.346c0-2.201-1.784-3.985-3.985-3.985zm-38.535 28.347"/><use xlink:href="#d" transform="matrix(9.9626 0 0 -9.9626 212.244 28.103)" fill="#fff"/><use xlink:href="#c" transform="matrix(9.9626 0 0 -9.9626 217.863 28.103)" fill="#fff"/><use xlink:href="#e" transform="matrix(9.9626 0 0 -9.9626 222.615 28.103)" fill="#fff"/><use xlink:href="#c" transform="matrix(9.9626 0 0 -9.9626 226.72 28.103)" fill="#fff"/><path stroke-width=".399" stroke-miterlimit="10" fill="none" stroke="#fff" d="M281.787 10.36h-34.55a3.985 3.985 0 0 0-3.985 3.986v20.376c0 2.201 1.784 3.985 3.985 3.985h34.55c2.2 0 3.985-1.784 3.985-3.985V14.346c0-2.201-1.784-3.985-3.985-3.985zm-38.535 28.347"/><use xlink:href="#f" transform="matrix(9.9626 0 0 -9.9626 255.28 27.598)" fill="#fff"/><use xlink:href="#b" transform="matrix(9.9626 0 0 -9.9626 260.78 27.708)" fill="#fff"/><use xlink:href="#g" transform="matrix(9.9626 0 0 -9.9626 265.044 27.598)" fill="#fff"/><use xlink:href="#e" transform="matrix(9.9626 0 0 -9.9626 270.374 27.708)" fill="#fff"/><path stroke-width=".399" stroke-miterlimit="10" fill="none" stroke="#fff" d="M381.4 10.36h-34.55a3.985 3.985 0 0 0-3.986 3.986v20.376c0 2.201 1.784 3.985 3.985 3.985h34.55c2.201 0 3.985-1.784 3.985-3.985V14.346c0-2.201-1.784-3.985-3.985-3.985zm-38.536 28.347"/><use xlink:href="#d" transform="matrix(9.9626 0 0 -9.9626 354.773 28.103)" fill="#fff"/><use xlink:href="#c" transform="matrix(9.9626 0 0 -9.9626 360.392 28.103)" fill="#fff"/><use xlink:href="#e" transform="matrix(9.9626 0 0 -9.9626 365.144 28.103)" fill="#fff"/><use xlink:href="#c" transform="matrix(9.9626 0 0 -9.9626 369.248 28.103)" fill="#fff"/><path stroke-width=".399" stroke-miterlimit="10" fill="none" stroke="#fff" d="M424.318 10.36h-34.55a3.985 3.985 0 0 0-3.985 3.986v20.376c0 2.201 1.784 3.985 3.985 3.985h34.55a3.985 3.985 0 0 0 3.985-3.985V14.346c0-2.201-1.784-3.985-3.985-3.985zm-38.535 28.347"/><use xlink:href="#f" transform="matrix(9.9626 0 0 -9.9626 397.81 27.598)" fill="#fff"/><use xlink:href="#b" transform="matrix(9.9626 0 0 -9.9626 403.31 27.708)" fill="#fff"/><use xlink:href="#g" transform="matrix(9.9626 0 0 -9.9626 407.573 27.598)" fill="#fff"/><use xlink:href="#e" transform="matrix(9.9626 0 0 -9.9626 412.903 27.708)" fill="#fff"/><symbol id="h"><path d="M.199.67C.19.682.189.683.17.683H0V.652h.029A.836.836 0 0 0 .079.65C.102.647.103.646.103.627V.105c0-.027 0-.074-.103-.074V0l.117.003L.234 0v.031C.131.031.131.078.131.105v.52l.01-.012.408-.6C.558.001.559 0 .566 0 .58 0 .58.007.58.026v.552c0 .027 0 .074.103.074v.031L.566.68.449.683V.652C.552.652.552.605.552.578V.151L.199.67z"/></symbol><symbol id="i"><path d="M.549.253C.549.111.452.031.357.031.31.031.192.056.192.246v.381c0 .036.002.047.079.047h.024v.031C.26.702.186.702.148.702.11.702.035.702 0 .705V.674h.024C.101.674.103.663.103.627V.25C.103.109.219 0 .355 0 .47 0 .56.093.577.207.58.227.58.236.58.276v.32c0 .033 0 .078.103.078v.031L.565.702.446.705V.674C.549.674.549.627.549.6V.253z"/></symbol><symbol id="j"><path d="M.549.258H.524C.513.156.499.031.323.031H.241c-.047 0-.049.007-.049.04v.533c0 .034 0 .048.095.048H.32v.031C.284.68.193.68.152.68.113.68.035.68 0 .683V.652h.024C.101.652.103.641.103.605V.078C.103.042.101.031.024.031H0V0h.521l.028.258z"/></symbol><use xlink:href="#h" transform="matrix(9.9626 0 0 -9.9626 460.693 27.938)" fill="#fff"/><use xlink:href="#i" transform="matrix(9.9626 0 0 -9.9626 468.165 28.157)" fill="#fff"/><use xlink:href="#j" transform="matrix(9.9626 0 0 -9.9626 475.637 27.938)" fill="#fff"/><use xlink:href="#j" transform="matrix(9.9626 0 0 -9.9626 481.863 27.938)" fill="#fff"/><path stroke-width=".996" stroke-miterlimit="10" fill="none" stroke="#fff" d="M29.256 24.534h25.458"/><path d="m57.603 24.534-4.623-2.311 1.734 2.311-1.734 2.311" fill="#fff"/><path stroke-width=".996" stroke-miterlimit="10" fill="none" stroke="#fff" d="M143.44 24.534h53.805"/><path d="m200.134 24.534-4.623-2.311 1.734 2.311-1.734 2.311" fill="#fff"/><path stroke-width=".996" stroke-miterlimit="10" fill="none" stroke="#fff" d="M285.971 24.534h53.805"/><path d="m342.665 24.534-4.623-2.311 1.734 2.311-1.734 2.311" fill="#fff"/><path stroke-width=".996" stroke-miterlimit="10" fill="none" stroke="#fff" d="M428.502 24.534h25.458"/><path d="m456.85 24.534-4.624-2.311 1.734 2.311-1.734 2.311" fill="#fff"/><path stroke-width=".399" stroke-dasharray="2.98883,2.98883" stroke-miterlimit="10" fill="none" stroke="#fff" d="M165.227 24.534c0-13.44-28.97-24.335-64.706-24.335-35.736 0-64.705 10.895-64.705 24.335 0 13.44 28.97 24.335 64.705 24.335 35.737 0 64.706-10.895 64.706-24.335zM307.758 24.534c0-13.44-28.97-24.335-64.705-24.335-35.737 0-64.706 10.895-64.706 24.335 0 13.44 28.97 24.335 64.706 24.335 35.736 0 64.705-10.895 64.705-24.335zM450.289 24.534c0-13.44-28.97-24.335-64.705-24.335-35.737 0-64.706 10.895-64.706 24.335 0 13.44 28.97 24.335 64.706 24.335 35.736 0 64.705-10.895 64.705-24.335zm-64.705 0"/><symbol id="k"><path d="M.443.225c0 .128-.1.234-.221.234C.097.459 0 .35 0 .225 0 .096.104 0 .221 0c.121 0 .222.098.222.225m-.221-.2a.13.13 0 0 0-.114.067C.083.136.083.197.083.233c0 .039 0 .093.024.137a.134.134 0 0 0 .114.067.131.131 0 0 0 .113-.065C.36.329.36.271.36.233c0-.036 0-.09-.022-.134A.129.129 0 0 0 .222.025z"/></symbol><use xlink:href="#h" transform="matrix(9.9626 0 0 -9.9626 89.503 87.853)" fill="#fff"/><use xlink:href="#k" transform="matrix(9.9626 0 0 -9.9626 96.925 87.963)" fill="#fff"/><use xlink:href="#d" transform="matrix(9.9626 0 0 -9.9626 102.245 87.963)" fill="#fff"/><use xlink:href="#b" transform="matrix(9.9626 0 0 -9.9626 107.724 87.963)" fill="#fff"/><use xlink:href="#h" transform="matrix(9.9626 0 0 -9.9626 232.033 87.853)" fill="#fff"/><use xlink:href="#k" transform="matrix(9.9626 0 0 -9.9626 239.455 87.963)" fill="#fff"/><use xlink:href="#d" transform="matrix(9.9626 0 0 -9.9626 244.775 87.963)" fill="#fff"/><use xlink:href="#b" transform="matrix(9.9626 0 0 -9.9626 250.254 87.963)" fill="#fff"/><use xlink:href="#h" transform="matrix(9.9626 0 0 -9.9626 374.562 87.853)" fill="#fff"/><use xlink:href="#k" transform="matrix(9.9626 0 0 -9.9626 381.984 87.963)" fill="#fff"/><use xlink:href="#d" transform="matrix(9.9626 0 0 -9.9626 387.304 87.963)" fill="#fff"/><use xlink:href="#b" transform="matrix(9.9626 0 0 -9.9626 392.783 87.963)" fill="#fff"/><path stroke-width=".996" stroke-miterlimit="10" fill="none" stroke="#fff" d="M100.521 77.415V51.958"/><path d="m100.521 49.068-2.31 4.623 2.31-1.733 2.312 1.733" fill="#fff"/><path stroke-width=".996" stroke-miterlimit="10" fill="none" stroke="#fff" d="M243.053 77.415V51.958"/><path d="m243.053 49.068-2.312 4.623 2.312-1.733 2.31 1.733" fill="#fff"/><path stroke-width=".996" stroke-miterlimit="10" fill="none" stroke="#fff" d="M385.584 77.415V51.958"/><path d="m385.584 49.068-2.312 4.623 2.312-1.733 2.311 1.733" fill="#fff"/></svg>